Coordinates
version=1
nRows=8
nColumns=36
inDegrees=yes

Units are S.I. units (second, meters, Newtons, ...)
If the header above contains a line with 'inDegrees', this indicates whether rotational values are in degrees (yes) or radians (no).

endheader
time	pelvis_tilt	pelvis_list	pelvis_rotation	pelvis_tx	pelvis_ty	pelvis_tz	hip_flexion_r	hip_adduction_r	hip_rotation_r	knee_angle_r	knee_angle_r_beta	ankle_angle_r	subtalar_angle_r	mtp_angle_r	hip_flexion_l	hip_adduction_l	hip_rotation_l	knee_angle_l	knee_angle_l_beta	ankle_angle_l	subtalar_angle_l	mtp_angle_l	lumbar_extension	lumbar_bending	lumbar_rotation	arm_flex_r	arm_add_r	arm_rot_r	elbow_flex_r	pro_sup_r	arm_flex_l	arm_add_l	arm_rot_l	elbow_flex_l	pro_sup_l
      0.64000000	     -5.43679312	      2.95608961	      1.47610907	     -0.72295490	      1.35409515	     -0.57693673	      4.05347157	     -2.79864023	     -5.46853428	     30.08998548	      0.52516932	    -17.63236924	    -13.81147014	     -5.56551859	     30.98333657	     -1.08508943	     -4.84782509	     50.66762168	      0.88431682	    -16.90004532	    -17.74136497	     -5.56551859	    -15.36279488	     -3.51548228	     -1.76227339	     22.92181846	     -6.72002979	     -1.72056427	     96.14354105	    102.71952187	      4.20667205	    -14.91992807	     11.53938060	     82.35643223	    105.71596053
      0.65000000	     -5.49242671	      2.90325239	      1.26692307	     -0.71455761	      1.35753116	     -0.57744340	      5.73298469	     -3.01887820	     -5.14951392	     31.42013092	      0.54838474	    -17.59976838	    -13.52082969	     -5.58679838	     30.96263297	     -1.14695275	     -4.88768543	     48.66522719	      0.84936845	    -17.09762743	    -17.27424371	     -5.58679838	    -15.98017881	     -3.57101270	     -1.76371584	     22.06115677	     -7.03033970	     -1.93020349	     95.92504545	    102.88565521	      3.91391923	    -14.67558980	     11.18059845	     82.46307409	    105.99441660
      0.66000000	     -5.55273655	      2.86727676	      1.00277393	     -0.70610322	      1.36005436	     -0.57765062	      7.29352473	     -3.27215287	     -4.94346647	     32.21476451	      0.56225371	    -16.30983876	    -11.56663921	     -5.72964836	     30.86230555	     -1.27307800	     -5.09993705	     46.53363989	      0.81216523	    -17.76169994	    -17.03266959	     -5.72964836	    -16.61296843	     -3.69445126	     -1.80110503	     21.27366634	     -7.38327146	     -2.09115201	     95.58009976	    103.87363517	      3.59700437	    -14.53676405	     10.60657662	     82.59291833	    107.54515300
      0.67000000	     -5.73053603	      2.77190315	      0.75991098	     -0.69766646	      1.36144987	     -0.57783750	      8.78521892	     -3.33545528	     -4.56694705	     32.24430732	      0.56276933	    -16.04104597	    -10.96821525	     -5.74578161	     30.83899897	     -1.46857040	     -5.27753488	     44.34047828	      0.77388734	    -18.23580437	    -16.33446711	     -5.74578161	    -17.09487184	     -3.78059833	     -1.78020898	     20.42424954	     -7.94058788	     -2.15329271	     95.40707637	    103.95251465	      3.34683721	    -14.45434153	     10.28096579	     82.92320566	    107.69041620
      0.68000000	     -5.90748172	      2.78031943	      0.56817777	     -0.68922382	      1.36172064	     -0.57849679	     10.27412220	     -3.67896060	     -4.66305149	     32.13096569	      0.56079114	    -14.37606632	     -8.44229343	     -5.81945400	     30.74799571	     -1.49717309	     -5.54579156	     42.02565410	      0.73348603	    -19.22434989	    -15.88898743	     -5.81945400	    -17.56681574	     -3.91228608	     -1.91809159	     19.66538328	     -8.56798634	     -2.11814655	     95.27893286	    104.33027361	      2.99175186	    -14.39907338	      9.82536642	     83.41814553	    108.28129035
      0.69000000	     -6.11153046	      2.65866964	      0.37156004	     -0.68069924	      1.36101851	     -0.57902071	     11.63859240	     -3.71875189	     -4.50568276	     31.44194520	      0.54876547	    -14.18897889	     -7.56300876	     -5.84220277	     30.64088401	     -1.67849863	     -5.76365040	     39.68743601	      0.69267643	    -20.04626840	    -15.06519648	     -5.84220277	    -17.98243654	     -3.91686024	     -1.93133113	     18.77824672	     -9.46156980	     -2.00182137	     95.44352995	    104.44644930	      2.70917903	    -14.37248375	      9.44945851	     83.98226499	    108.44270578
      0.70000000	     -6.23274792	      2.49834193	      0.14003375	     -0.67202872	      1.35947946	     -0.57941540	     12.82472884	     -3.67837314	     -4.32069279	     30.44657930	      0.53139305	    -14.03354205	     -6.44056395	     -5.86715220	     30.37777736	     -1.93898300	     -6.05058578	     37.28824831	      0.65080271	    -20.96634453	    -14.20281616	     -5.86715220	    -18.49524712	     -3.87405559	     -1.93296377	     17.92516413	    -10.45243660	     -1.84064813	     95.81622340	    104.57754012	      2.35961381	    -14.45286857	      8.97120282	     84.80669383	    108.59757400
      0.71000000	     -6.43781549	      2.33601642	     -0.10111347	     -0.66312927	      1.35675715	     -0.57979806	     14.05035386	     -3.58663615	     -4.04041108	     29.28400029	      0.51110222	    -14.17635926	     -5.57731468	     -5.89040587	     30.14123484	     -2.21392215	     -6.41136021	     34.84655516	      0.60818712	    -21.96445208	    -13.23824979	     -5.89040587	    -18.86485924	     -3.84867042	     -1.94986385	     16.98048453	    -11.61244526	     -1.60419419	     96.38961079	    104.71932321	      1.85916902	    -14.62090349	      8.46546659	     85.86803471	    108.74647632
